<?xml version="1.0" encoding="utf-8"?>
<!-- Generator: Adobe Illustrator 15.0.0, SVG Export Plug-In  -->
<!DOCTYPE svg PUBLIC "-//W3C//DTD SVG 1.1//EN" "http://www.w3.org/Graphics/SVG/1.1/DTD/svg11.dtd" [
	<!ENTITY ns_flows "http://ns.adobe.com/Flows/1.0/">
]>
<svg version="1.1"
	 xmlns="http://www.w3.org/2000/svg" xmlns:xlink="http://www.w3.org/1999/xlink" xmlns:a="http://ns.adobe.com/AdobeSVGViewerExtensions/3.0/"
	 x="0px" y="0px" width="75px" height="75px" viewBox="-5.37012 -5.39209 75 75"
	 overflow="visible" enable-background="new -5.37012 -5.39209 75 75" xml:space="preserve">
<defs>
</defs>
<path display="none" fill="#FFFFFF" d="M27.13574,42.60791V18.146c0-10.27051-0.96436-17.4624-0.96436-17.4624
	s-6.89258,4.85693-9.89307,18.33643c-2.36816,10.68311-3.12012,22.16309-3.12012,22.16309s8.99463-0.05957,9.53662,1.08398
	c0.53027,1.14355-0.56543,4.33008-0.56543,8.03027c0,3.70703,0.46973,5.42578,0.06543,6.84473
	c-0.40674,1.41309-1.37402,1.77246-1.41309,2.4248c-0.04199,0.64062,0.07178,3.9707,3.50049,3.9707
	c0.94922,0,2.3501-0.91602,2.61377-3.29883C27.33594,56.35791,27.4707,48.61377,27.13574,42.60791 M24.06982,60.80713
	c-0.44043,0-0.79688-0.35938-0.79688-0.80273c0-0.4375,0.35645-0.79004,0.79688-0.79004c0.44287,0,0.79004,0.35254,0.79004,0.79004
	C24.85986,60.44775,24.5127,60.80713,24.06982,60.80713 M24.71631,53.83057c-0.44629,0-0.79688-0.35254-0.79688-0.80273
	c0-0.43066,0.35059-0.79004,0.79688-0.79004c0.43701,0,0.79346,0.35938,0.79346,0.79004
	C25.50977,53.47803,25.15332,53.83057,24.71631,53.83057 M24.83594,47.05811c-0.44629,0-0.79053-0.36035-0.79053-0.79102
	c0-0.44238,0.34424-0.7959,0.79053-0.7959c0.44043,0,0.79932,0.35352,0.79932,0.7959
	C25.63525,46.69775,25.27637,47.05811,24.83594,47.05811"/>
<path display="none" fill="#FFFFFF" d="M44.17383,19.60107v-5.54492c0-5.61133,1.44922-8.51562,7.19238-8.51562h1.38867v-4.2876
	h-2.24609c-7.85547,0-11.67676,4.22119-11.67676,12.27588v4.68311c0,6.79639-1.85645,11.48584-8.71436,11.48584h-0.59863v4.75391
	h0.59863c6.78564,0,8.71436,4.82129,8.71436,11.48047v4.75977c0,7.91699,3.68848,12.27637,11.67676,12.27637h2.24609v-4.29297
	h-1.38867c-5.74316,0-7.19238-2.9043-7.19238-8.51562v-5.54492c0-6.60547-2.70703-10.56445-8.38379-12.47998
	C41.40137,30.15869,44.17383,26.33203,44.17383,19.60107"/>
<path fill="#E1E1E1" d="M36.17188,32.90088c0,1.80176-1.4668,3.27441-3.27344,3.27441c-1.80713,0-3.27051-1.47266-3.27051-3.27441
	c0-1.80811,1.46338-3.27197,3.27051-3.27197C34.70508,29.62891,36.17188,31.09277,36.17188,32.90088"/>
<path fill="#E1E1E1" d="M32.90137,65.79736c-6.07617,0-9.3584-16.95215-9.3584-32.89648C23.54297,16.9541,26.8252,0,32.90137,0
	c6.07129,0,9.35352,16.9541,9.35352,32.90088C42.25488,48.84521,38.97266,65.79736,32.90137,65.79736 M32.90137,2.07812
	c-3.04102,0-7.28125,11.72852-7.28125,30.82275c0,19.09668,4.24023,30.82129,7.28125,30.82129
	c3.03809,0,7.27246-11.72461,7.27246-30.82129C40.17383,13.80664,35.93945,2.07812,32.90137,2.07812"/>
<path fill="#E1E1E1" d="M12.58887,57.22412c-1.25098,0-2.24658-0.35547-2.95068-1.0625
	c-2.48486-2.48535-0.13379-7.90039,2.27881-12.01562c3.18652-5.43652,8.28516-11.78027,14.36719-17.86182
	C36.87988,15.68945,47.69922,8.57471,53.20801,8.57471c1.25098,0,2.24609,0.35889,2.95117,1.06348
	c2.48438,2.47949,0.13379,7.90527-2.27637,12.01123c-3.19238,5.44531-8.29004,11.78369-14.37012,17.8667
	C28.92041,50.11182,18.09521,57.22412,12.58887,57.22412 M53.20801,10.65088c-4.15234,0-14.22461,5.87402-25.45752,17.09814
	c-5.95361,5.9585-10.94189,12.15186-14.04395,17.45264c-3.29688,5.61621-3.50684,8.5918-2.60205,9.48828
	c0.30322,0.31055,0.80078,0.46484,1.48438,0.46484c4.1499,0,14.23096-5.88086,25.45703-17.11133
	C44,32.08936,48.98828,25.89355,52.08984,20.60352c3.2959-5.62842,3.50488-8.59668,2.60254-9.50049
	C54.38965,10.80225,53.88965,10.65088,53.20801,10.65088"/>
<path fill="#E1E1E1" d="M32.90137,42.25439C16.94824,42.25439,0,38.9751,0,32.89893c0-6.0752,16.94824-9.35645,32.90137-9.35645
	c15.94824,0,32.89551,3.28125,32.89551,9.35645C65.79688,38.9751,48.84961,42.25439,32.90137,42.25439 M32.90137,25.62012
	c-19.10156,0-30.82666,4.24316-30.82666,7.27881c0,3.04102,11.7251,7.27832,30.82666,7.27832
	c19.09668,0,30.81836-4.2373,30.81836-7.27832C63.71973,29.86328,51.99805,25.62012,32.90137,25.62012"/>
<path fill="#E1E1E1" d="M53.20801,57.22412c-5.50488,0-16.3252-7.1123-26.92383-17.70801
	c-6.07666-6.08301-11.18066-12.42139-14.37061-17.8667c-2.40918-4.10596-4.75732-9.53174-2.27783-12.01123
	c0.70996-0.70459,1.70215-1.06348,2.95312-1.06348c5.50635,0,16.33154,7.11475,26.92676,17.70947
	C45.5957,32.36572,50.69336,38.70947,53.88281,44.146c2.41016,4.11523,4.76074,9.53027,2.2793,12.01562
	C55.4541,56.86865,54.46289,57.22412,53.20801,57.22412 M12.58887,10.65088c-0.68066,0-1.18115,0.15137-1.48438,0.45215
	c-0.90186,0.90381-0.69189,3.87207,2.60205,9.50049c3.10205,5.29004,8.0874,11.48584,14.04102,17.43994
	C38.9834,49.27393,49.05859,55.15479,53.20801,55.15479c0.6875,0,1.18164-0.1543,1.48145-0.46484
	c0.90527-0.89648,0.70117-3.87207-2.60254-9.48828c-3.0957-5.30078-8.08398-11.49414-14.04395-17.45264
	C26.81982,16.5249,16.73877,10.65088,12.58887,10.65088"/>
<path fill="#E1E1E1" d="M19.99854,10.78467c0-1.78223-1.43799-3.21826-3.21924-3.21826c-1.7749,0-3.21826,1.43604-3.21826,3.21826
	c0,1.77637,1.44336,3.21875,3.21826,3.21875C18.56055,14.00342,19.99854,12.56104,19.99854,10.78467"/>
<path fill="#E1E1E1" d="M40.41504,60.03467c0-1.78418-1.4375-3.21777-3.21875-3.21777c-1.77441,0-3.21875,1.43359-3.21875,3.21777
	c0,1.77246,1.44434,3.21875,3.21875,3.21875C38.97754,63.25342,40.41504,61.80713,40.41504,60.03467"/>
<path fill="#E1E1E1" d="M12.83057,38.45361c0-1.77832-1.44043-3.21777-3.21826-3.21777c-1.77539,0-3.21875,1.43945-3.21875,3.21777
	s1.44336,3.21875,3.21875,3.21875C11.39014,41.67236,12.83057,40.23193,12.83057,38.45361"/>
<path fill="#E1E1E1" d="M56.50195,20.02734c0-1.77686-1.43652-3.21875-3.21875-3.21875c-1.77734,0-3.21875,1.44189-3.21875,3.21875
	c0,1.78223,1.44141,3.21826,3.21875,3.21826C55.06543,23.24561,56.50195,21.80957,56.50195,20.02734"/>
</svg>
