<?xml version="1.0" encoding="utf-8"?>
<!-- Generator: Adobe Illustrator 15.0.0, SVG Export Plug-In  -->
<!DOCTYPE svg PUBLIC "-//W3C//DTD SVG 1.1//EN" "http://www.w3.org/Graphics/SVG/1.1/DTD/svg11.dtd" [
	<!ENTITY ns_flows "http://ns.adobe.com/Flows/1.0/">
]>
<svg version="1.1"
	 xmlns="http://www.w3.org/2000/svg" xmlns:xlink="http://www.w3.org/1999/xlink" xmlns:a="http://ns.adobe.com/AdobeSVGViewerExtensions/3.0/"
	 x="0px" y="0px" width="75px" height="75px" viewBox="-9.22314 -6.07568 75 75"
	 overflow="visible" enable-background="new -9.22314 -6.07568 75 75" xml:space="preserve">
<defs>
</defs>
<path fill="#FFFFFF" d="M23.28271,41.92432V17.4624C23.28271,7.19189,22.31836,0,22.31836,0s-6.89258,4.85693-9.89307,18.33643
	c-2.36816,10.68311-3.12012,22.16309-3.12012,22.16309s8.99463-0.05957,9.53662,1.08398
	c0.53027,1.14355-0.56543,4.33008-0.56543,8.03027c0,3.70703,0.46973,5.42578,0.06543,6.84473
	c-0.40674,1.41309-1.37402,1.77246-1.41309,2.4248c-0.04199,0.64062,0.07178,3.9707,3.50049,3.9707
	c0.94922,0,2.3501-0.91602,2.61377-3.29883C23.48291,55.67432,23.61768,47.93018,23.28271,41.92432 M20.2168,60.12354
	c-0.44043,0-0.79688-0.35938-0.79688-0.80273c0-0.4375,0.35645-0.79004,0.79688-0.79004c0.44287,0,0.79004,0.35254,0.79004,0.79004
	C21.00684,59.76416,20.65967,60.12354,20.2168,60.12354 M20.86328,53.14697c-0.44629,0-0.79688-0.35254-0.79688-0.80273
	c0-0.43066,0.35059-0.79004,0.79688-0.79004c0.43701,0,0.79346,0.35938,0.79346,0.79004
	C21.65674,52.79443,21.30029,53.14697,20.86328,53.14697 M20.98291,46.37451c-0.44629,0-0.79053-0.36035-0.79053-0.79102
	c0-0.44238,0.34424-0.7959,0.79053-0.7959c0.44043,0,0.79932,0.35352,0.79932,0.7959
	C21.78223,46.01416,21.42334,46.37451,20.98291,46.37451"/>
<path fill="#FFFFFF" d="M40.3208,18.91748v-5.54492c0-5.61133,1.44922-8.51562,7.19238-8.51562h1.38867v-4.2876h-2.24609
	c-7.85547,0-11.67676,4.22119-11.67676,12.27588v4.68311c0,6.79639-1.85645,11.48584-8.71436,11.48584h-0.59863v4.75391h0.59863
	c6.78564,0,8.71436,4.82129,8.71436,11.48047v4.75977c0,7.91699,3.68848,12.27637,11.67676,12.27637h2.24609V57.9917h-1.38867
	c-5.74316,0-7.19238-2.9043-7.19238-8.51562v-5.54492c0-6.60547-2.70703-10.56445-8.38379-12.47998
	C37.54834,29.4751,40.3208,25.64844,40.3208,18.91748"/>
<path display="none" fill="#E1E1E1" d="M22.14795,8.61963c-10.42969,0-18.91895,8.48633-18.91895,18.91455
	c0,1.40088,0.15918,2.77295,0.45654,4.11133L0,33.74072l10.89453,4.57324l1.33545-11.52832l-3.4209,1.94531
	c-0.07764-0.5957-0.13477-1.17676-0.13477-1.66455c0-7.43164,6.04395-13.47363,13.47363-13.47363
	c7.42773,0,13.47461,6.04199,13.47461,13.47363c0,0.75684,0.20117,3.66895-0.86328,5.48389
	c1.31445-0.61035,2.73047-2.0874,3.19531-2.31982l2.01172,3.07959c0.67773-1.37793,1.10352-2.6001,1.10352-5.77588
	C41.06982,17.10596,32.58154,8.61963,22.14795,8.61963z"/>
<path display="none" fill="#E1E1E1" d="M42.32373,43.80322l-5.1543-9.37305c-1.11328,0.56055-3.79688,2.65332-7.19727,2.71289
	c-1.3042,0.02246-3.81494,0.03711-7.46973,0.03711c-3.66455,0-8.82227,0.14453-8.82227,0.14453l-0.84619,4.59863l-5.92871-2.20312
	l-2.7334,4.08301l-0.83057,1.21094h39.75391L42.32373,43.80322z"/>
<polygon display="none" fill="#E1E1E1" points="3.16992,47.60596 1.94482,49.37451 44.40186,49.37451 42.85693,47.60596 "/>
<polygon display="none" fill="#E1E1E1" points="3.16992,52.23291 1.94482,54.229 44.40186,54.229 42.85693,52.23291 "/>
<polygon display="none" fill="#E1E1E1" points="56.5542,38.60303 44.40186,36.55908 45.70068,38.50146 43.00342,38.50146 
	45.06592,41.97998 47.88623,41.97998 49.0874,44.22607 "/>
</svg>
