<?xml version="1.0" encoding="utf-8"?>
<!-- Generator: Adobe Illustrator 15.0.0, SVG Export Plug-In  -->
<!DOCTYPE svg PUBLIC "-//W3C//DTD SVG 1.0//EN" "http://www.w3.org/TR/2001/REC-SVG-20010904/DTD/svg10.dtd" [
	<!ENTITY ns_flows "http://ns.adobe.com/Flows/1.0/">
]>
<svg version="1.0"
	 xmlns="http://www.w3.org/2000/svg" xmlns:xlink="http://www.w3.org/1999/xlink" xmlns:a="http://ns.adobe.com/AdobeSVGViewerExtensions/3.0/"
	 x="0px" y="0px" width="400px" height="112px" viewBox="-3.14 -1.56 400 112" enable-background="new -3.14 -1.56 400 112"
	 xml:space="preserve">
<defs>
</defs>
<g display="none">
	<g display="inline">
		<g display="none">
			<path display="inline" fill="#231F20" d="M38.92,38.7c-1.26,0.96-2.33,3.04-2.38,4.63l2.09,5.13c0.79,1.38,1.92,1.87,2.51,1.08
				c0.59-0.78,2.02-3.63,2.06-5.22l0.53-5.5c0.57-1.48-0.22-2.37-1.75-1.98L38.92,38.7z"/>
		</g>
		<g display="none">
			<path display="inline" fill="#231F20" d="M72.9,53.37c1.44,0.67,1.74,0.26,0.68-0.91l-12.4-11.86c-1.13-1.11-2.83-0.97-3.76,0.32
				l-3.5,3.72c-0.5,1.5-0.6,3.18-0.21,3.73c0.39,0.55,2.91,1.78,4.45,2.15L72.9,53.37z"/>
		</g>
		<g display="none">
			<path display="inline" fill="#231F20" d="M45.79,43.46c-0.1,1.58,0.42,2.87,1.16,2.86s3.09-1.38,4.01-2.67l3.48-4.34
				c1.22-1.02,1.04-2.41-0.39-3.09l-3.25,0.31c-1.58,0.18-3.43,1.5-4.11,2.93L45.79,43.46z"/>
		</g>
		<g display="none">
			<path display="inline" fill="#231F20" d="M58.58,58.23c-1.11-1.13-2.07-1.51-2.12-0.84c-0.06,0.67-0.04,3.57,0.71,4.97
				l8.36,20.68c0.52,1.5,1.81,1.76,2.88,0.59l3.68-8.39c0.6-1.47,0.34-3.73-0.58-5.02L58.58,58.23z"/>
		</g>
		<g display="none">
			<path display="inline" fill="#231F20" d="M74.94,59.55c-0.2-1.57-1.53-3.43-2.96-4.12l-13.95-3.45c-1.53-0.4-1.84,0.16-0.68,1.24
				L74.1,69.17c1.25,0.97,2.24,0.47,2.2-1.12L74.94,59.55z"/>
		</g>
		<g display="none">
			<path display="inline" fill="#231F20" d="M50.19,67.88c-0.07-1.58-0.72-2.59-1.45-2.25c-0.73,0.35-3.1,2.5-3.76,3.94
				c0,0-8.42,18.54-12.9,24.92c3.98,1.19,12.99-0.51,12.99-0.51c1.56-0.29,3.1-1.8,3.43-3.36L50.19,67.88z"/>
		</g>
		<g display="none">
			<path display="inline" fill="#231F20" d="M56.13,63.95c-0.64-1.45-1.59-2.06-2.1-1.36c-0.51,0.7-1.89,3.81-1.84,5.39l-0.85,24.19
				c-0.28,1.56,0.65,2.26,2.07,1.55l8-6.14c1.14-1.1,1.8-3.28,1.46-4.83L56.13,63.95z"/>
		</g>
		<g display="none">
			<path display="inline" fill="#231F20" d="M35.23,62.29c-0.79-0.33-2.63-0.07-4.08,0.56l-23.8,8.78
				c-1.53,0.42-1.96,1.77-0.96,3.01l6.66,6.61c1.3,0.9,3.46,0.93,4.78,0.06L36.1,65.73C37.17,64.56,36.02,62.61,35.23,62.29z"/>
		</g>
		<g display="none">
			<path display="inline" fill="#231F20" d="M18.18,84.1c-1.29,0.92-1.31,2.44-0.03,3.39l8.14,3.9c1.52,0.47,3.56-0.17,4.55-1.41
				l12.49-21.34c0.6-1.47,0.36-2.75-0.53-2.85c-0.9-0.1-4.44,1.13-5.54,2.27L18.18,84.1z"/>
		</g>
		<g display="none">
			<path display="inline" fill="#231F20" d="M29.79,50.06c-0.57-1.28-2.21-2.9-3.64-3.59L5.39,35.65c-1.31-0.89-2.76-0.37-3.21,1.15
				L1.69,48.51c0.19,1.57,1.61,3.17,3.15,3.55L27.67,54C29.25,54.04,30.36,51.33,29.79,50.06z"/>
		</g>
		<g display="none">
			<path display="inline" fill="#231F20" d="M30.91,57.07c-0.68-0.5-2.53-0.92-4.12-0.93L2.2,53.77c-1.56-0.3-2.5,0.71-2.1,2.25
				l3.8,10.57c0.79,1.37,2.7,2.21,4.25,1.85l22.09-7.14C31.65,60.61,31.59,57.57,30.91,57.07z"/>
		</g>
		<g display="none">
			<path display="inline" fill="#231F20" d="M33.82,7.68c-0.07-1.58-1.23-2.22-2.6-1.41L20.9,13.95c-0.97,1.25-1.24,3.46-0.58,4.9
				l11.62,19.33c1.01,1.22,2.35,1.35,2.98,0.27c0.63-1.08,2.4-5.02,2.1-6.57L33.82,7.68z"/>
		</g>
		<g display="none">
			<path display="inline" fill="#231F20" d="M16.67,18.36c-0.71-1.42-2.15-1.6-3.19-0.41L7.55,30.79c-0.52,1.5,0.13,3.46,1.44,4.35
				l18.88,10.22c1.45,0.64,2.81,0.34,3.03-0.66c0.21-1.01-0.3-4.9-1.19-6.22L16.67,18.36z"/>
		</g>
		<g display="none">
			<path display="inline" fill="#231F20" d="M60.63,3.06c-1.58-0.13-3.53,0.88-4.32,2.25l-8.82,24.85
				c-0.43,1.53,0.14,2.64,1.28,2.47s5.14-1.88,6.19-3.07L75.01,6.38c1.18-1.06,0.86-2.11-0.7-2.35L60.63,3.06z"/>
		</g>
		<g display="none">
			<path display="inline" fill="#231F20" d="M53.88,3.04c0.73-1.41,0.05-2.3-1.5-1.98L39.04,5.76c-1.4,0.74-2.53,2.64-2.51,4.23
				l2.6,22.16c0.28,1.56,1.48,2.37,2.66,1.81s3.57-3.84,4.07-5.34L53.88,3.04z"/>
		</g>
		<g display="none">
			<path display="inline" fill="#231F20" d="M65.42,38.01c-1.43,0.7-1.54,2.03-0.26,2.96c0,0,10.18,7.39,13.51,9.98
				c11.37-4.01,31.24-6.25,31.24-6.25c1.58-0.18,2.03-1.32,1.01-2.53L97.11,25.67c-1.02-1.22-3.09-1.81-4.59-1.32L65.42,38.01z"/>
		</g>
		<g display="none">
			<path display="inline" fill="#231F20" d="M55.99,32.51c-0.92,1.3-0.45,2.6,1.02,2.91c1.48,0.3,6.71,0.21,8.13-0.48l29.46-14.31
				c1.46-0.61,1.63-1.9,0.38-2.87l-15.6-7.5c-1.41-0.73-3.54-0.48-4.74,0.56L55.99,32.51z"/>
		</g>
	</g>
</g>
<path display="none" fill="#231F20" d="M149.3,76.96h7.31c0,2.89,4.15,3.65,5.78,3.65c1.09,0,2.4-0.33,2.4-1.85
	c0-1.64-4.09-1.91-8.02-3.27c-3.71-1.31-7.25-3.6-7.25-8.73c0-5.56,5.73-7.91,9.6-7.91c3.71,0,6.98,1.91,8.13,4.25l0.44-3.6h6.71
	v9.82h-7.09c0-2.29-2.84-4.15-5.56-4.15c-1.15,0-2.13,0.6-2.13,1.96c0,1.53,3.22,2.18,6.71,3.38c4.15,1.42,8.78,3,8.78,8.73
	c0,5.13-4.85,8.18-10.14,8.18c-3.93,0-7.04-1.91-8.35-3.98l-0.49,3.33h-6.82V76.96z"/>
<path display="none" fill="#231F20" d="M195.82,71.83c-0.11-2.62-0.93-5.73-3.44-5.73c-3.22,0-4.8,3.44-4.8,6.98
	c0,3.54,2.13,6.38,5.62,6.44c2.89,0.05,4.8-1.15,6.6-3.11l4.8,5.56c-2.56,2.78-7.47,5.56-13.36,5.56c-8.02,0-15-4.85-15-14.56
	c0-9.65,6.44-13.96,13.42-13.96c3.71,0,5.89,2.02,6.82,3.11l0.93-2.62h6.44v12.33H195.82z"/>
<path display="none" fill="#231F20" d="M206.51,86.77v-7.14h2.4V66.6h-2.34v-7.09h10.25l1.64,3.49c1.42-2.62,2.83-4.85,8.45-4.85
	v9.82c-4.91,0-7.69,1.25-7.69,6.05v5.62h2.73v7.14H206.51z"/>
<path display="none" fill="#231F20" d="M241.74,59.51v13.14c0,4.69,0.71,6.87,2.95,6.87c1.91,0,3.44-1.69,3.44-4.15v-8.67h-3.6v-7.2
	h14.13v20.02h2.67v7.25h-10.31l-1.47-3.44c-1.2,1.36-3.11,4.2-7.74,4.2c-8.24,0-10.96-4.25-10.96-13.31v-7.53h-2.29v-7.2H241.74z"/>
<path display="none" fill="#231F20" d="M263.5,86.77v-7.14h2.29V66.76h-2.29v-7.2h10.31l1.2,3.22c0.87-1.04,3.38-3.98,6.82-3.98
	c5.51,0,7.25,2.62,8.13,3.93c1.69-1.91,4.25-3.93,8.02-3.93c8.83,0,10.2,6.44,10.2,13.09v7.53h2.67v7.36h-13.85V73.41
	c0-2.62,0.49-6.76-2.07-6.76c-2.35,0-2.89,1.64-2.89,3.98v8.84h3.27v7.31h-14.13V72.87c0-4.42-0.11-6.22-2.29-6.22
	c-1.75,0-2.45,1.04-2.45,3.27v9.71h3.27v7.14H263.5z"/>
<path display="none" fill="#231F20" d="M313.03,86.77v-7.14h2.29V66.76h-2.29v-7.2h10.31l1.2,3.22c0.87-1.04,3.38-3.98,6.82-3.98
	c5.51,0,7.25,2.62,8.13,3.93c1.69-1.91,4.25-3.93,8.02-3.93c8.84,0,10.2,6.44,10.2,13.09v7.53h2.67v7.36h-13.85V73.41
	c0-2.62,0.49-6.76-2.07-6.76c-2.34,0-2.89,1.64-2.89,3.98v8.84h3.27v7.31H330.7V72.87c0-4.42-0.11-6.22-2.29-6.22
	c-1.74,0-2.46,1.04-2.46,3.27v9.71h3.27v7.14H313.03z"/>
<path display="none" fill="#231F20" d="M379.51,66.43v-6.93h13.85v6.76h-2.62l-10.36,25.2c-1.58,3.38-3.82,7.74-11.73,7.69
	c-2.83-0.17-4.96-1.31-6.6-2.73l4.09-6.43c0.93,0.82,2.02,1.63,3.16,1.85c1.69,0.33,2.95-1.25,3.49-2.89l0.76-2.29l-10.64-20.18
	h-2.24v-6.98h16.8v6.93h-2.56l3.54,8.51l3.55-8.51H379.51z"/>
<g display="none">
	<g display="inline">
		<path fill="#231F20" d="M96.73,62.12c2.66,3.3,8.16,1.01,8.19-2.14C104.95,55.68,93.74,58.29,96.73,62.12z M104.16,61.15
			c-0.33,0.75-1.23,1.06-1.98,1.14c-0.61,0.06-1.33-0.36-1.04-1.05c0.32-0.75,1.23-1.06,1.98-1.14
			C103.73,60.04,104.45,60.46,104.16,61.15z M116.26,87.08c0.75,2.96,5.13,4.77,4.67,2.66c-0.24-1.11-2.41-2.53-1.28-3.22
			c1.53-0.93,2.84,0.43,3.04,1.58c0.26,1.54,1.06,5.26-1.81,5.28c-5.22,0.04-5.56-5.05-7.49-8.66c-0.52-0.98-1.32-1.91-2.25-2.53
			c-2.2-1.45-5.17-2.63-5.3-5.68c-0.01-0.33,0.58-3.13,0.64-3.09c1.56,1.02,2.64,2.83,3.86,4.21c2.86,3.23,6.58,4.41,10.78,4.88
			c1.03,0.12,2.9,0.54,3.84-0.13c0.87-0.61,0.39-2.03,0.18-2.86c-0.57-2.25-1.42-4.42-1.94-6.69c-0.74-3.21-5.48-3.15-5.7-0.87
			c-0.22,2.28,4.12,3.34,2.24,6.18c-1.89,2.84-6.89-3.04-9.06-11.51c-1.6-6.2-1.96-11.5-4.74-16.36
			c-1.54-0.43-21.23,2.22-26.82,4.55c0.88,8.05,2.09,16.41-1.61,20.65c-1.77,2.03-0.25,4.84,4.27,4.24
			c1.49-3.26,1.56-11.06,3.34-9.07c1.78,1.99,3.83,18.56-4.46,18.85c-2.12,0.08-3.42-1.17-4.2-3.59c0.08-1,3.25-3.08,3.72-0.68
			c0.62,2.33-2.33-0.8-1.7,1.53c0.47,1.51,3.88,2.71,3.91-0.72c0.07-8-9.06-3.97-9.93-1.18c-1.01,3.22,3.53,8.37,5.87,10
			c2.34,1.63,9.62,1.15,12.1-6.73c1.1-3.5,0.59-6.57,2.53-7.16c1.41,4.68,4.08,7.38-6.24,15.24c-5.49,4.18,1.38,7.51,4.87,8.84
			c3.49,1.33,8.58,3.7,9.81,3.15c1.23-0.55-3.29-3.37-6.26-5.24c-2.97-1.87-3.73-2.74-2.7-5.92c0.7-2.17,3.98-4.24,7.43-6.18
			c4.79,1.68,9.78,5.87,11.16,10.96c0.22,0.81,0.13,2.43-0.87,2.8c-1.15,0.42-2.81,0.03-3.8-0.62c-1.14-0.75-2.11-1.77-3.05-2.74
			c-0.33-0.34-1.88-1.98-0.78-2.46c0.46-0.2,1.7,1.13,2.11,1.36c0.88,0.49,2.34,1.17,3.24,0.36c1.32-1.2-4.97-6.18-6.76-6.19
			c-1.78-0.02-4.29,2.72-4.49,4.69c-0.2,1.97,7.67,7.32,8.54,7.9c5.63,3.8,11.55-0.53,10.5-4.37c-1.04-3.84-6.04-12.19-11.25-15.05
			c4.38-0.71,5.27-0.48,8.12,3.18c2.75,3.54,3.84,8.05,7.24,8.66c3.4,0.61,8.74-3.51,9.03-7.39
			C129.32,84.49,114.8,81.29,116.26,87.08z M94.45,59.83c1.4-5.57,11.13-5.38,12.41-0.03v0.04C107.17,66.34,92.76,66.53,94.45,59.83
			z"/>
	</g>
</g>
<g>
	<g>
		<g>
			<path fill="#11341C" d="M39.92,37.7c-1.26,0.96-2.33,3.04-2.38,4.63l2.09,5.13c0.79,1.38,1.92,1.87,2.51,1.08
				c0.59-0.78,2.02-3.63,2.06-5.22l0.53-5.5c0.57-1.48-0.22-2.37-1.75-1.98L39.92,37.7z"/>
		</g>
		<g>
			<path fill="#11341C" d="M73.9,52.37c1.44,0.67,1.74,0.26,0.68-0.91l-12.4-11.86c-1.13-1.11-2.83-0.97-3.76,0.32l-3.5,3.72
				c-0.5,1.5-0.6,3.18-0.21,3.73c0.39,0.55,2.91,1.78,4.45,2.15L73.9,52.37z"/>
		</g>
		<g>
			<path fill="#11341C" d="M46.79,42.46c-0.1,1.58,0.42,2.87,1.16,2.86s3.09-1.38,4.01-2.67l3.48-4.34
				c1.22-1.02,1.04-2.41-0.39-3.09l-3.25,0.31c-1.58,0.18-3.43,1.5-4.11,2.93L46.79,42.46z"/>
		</g>
		<g>
			<path fill="#11341C" d="M59.58,57.23c-1.11-1.13-2.07-1.51-2.12-0.84c-0.06,0.67-0.04,3.57,0.71,4.97l8.36,20.68
				c0.52,1.5,1.81,1.76,2.88,0.59l3.68-8.39c0.6-1.47,0.34-3.73-0.58-5.02L59.58,57.23z"/>
		</g>
		<g>
			<path fill="#11341C" d="M75.94,58.55c-0.2-1.57-1.53-3.43-2.96-4.12l-13.95-3.45c-1.53-0.4-1.84,0.16-0.68,1.24L75.1,68.17
				c1.25,0.97,2.24,0.47,2.2-1.12L75.94,58.55z"/>
		</g>
		<g>
			<path fill="#11341C" d="M51.19,66.88c-0.07-1.58-0.72-2.59-1.45-2.25c-0.73,0.35-3.1,2.5-3.76,3.94c0,0-8.42,18.54-12.9,24.92
				c3.98,1.19,12.99-0.51,12.99-0.51c1.56-0.29,3.1-1.8,3.43-3.36L51.19,66.88z"/>
		</g>
		<g>
			<path fill="#11341C" d="M57.13,62.95c-0.64-1.45-1.59-2.06-2.1-1.36c-0.51,0.7-1.89,3.81-1.84,5.39l-0.85,24.19
				c-0.28,1.56,0.65,2.26,2.07,1.55l8-6.14c1.14-1.1,1.8-3.28,1.46-4.83L57.13,62.95z"/>
		</g>
		<g>
			<path fill="#11341C" d="M36.23,61.29c-0.79-0.33-2.63-0.07-4.08,0.56l-23.8,8.78c-1.53,0.42-1.96,1.77-0.96,3.01l6.66,6.61
				c1.3,0.9,3.46,0.93,4.78,0.06L37.1,64.73C38.17,63.56,37.02,61.61,36.23,61.29z"/>
		</g>
		<g>
			<path fill="#11341C" d="M19.18,83.1c-1.29,0.92-1.31,2.44-0.03,3.39l8.14,3.9c1.52,0.47,3.56-0.17,4.55-1.41l12.49-21.34
				c0.6-1.47,0.36-2.75-0.53-2.85c-0.9-0.1-4.44,1.13-5.54,2.27L19.18,83.1z"/>
		</g>
		<g>
			<path fill="#11341C" d="M30.79,49.06c-0.57-1.28-2.21-2.9-3.64-3.59L6.39,34.65c-1.31-0.89-2.76-0.37-3.21,1.15L2.69,47.51
				c0.19,1.57,1.61,3.17,3.15,3.55L28.67,53C30.25,53.04,31.36,50.33,30.79,49.06z"/>
		</g>
		<g>
			<path fill="#11341C" d="M31.91,56.07c-0.68-0.5-2.53-0.92-4.12-0.93L3.2,52.77c-1.56-0.3-2.5,0.71-2.1,2.25l3.8,10.57
				c0.79,1.37,2.7,2.21,4.25,1.85l22.09-7.14C32.65,59.61,32.59,56.57,31.91,56.07z"/>
		</g>
		<g>
			<path fill="#11341C" d="M34.82,6.68c-0.07-1.58-1.23-2.22-2.6-1.41L21.9,12.95c-0.97,1.25-1.24,3.46-0.58,4.9l11.62,19.33
				c1.01,1.22,2.35,1.35,2.98,0.27c0.63-1.08,2.4-5.02,2.1-6.57L34.82,6.68z"/>
		</g>
		<g>
			<path fill="#11341C" d="M17.67,17.36c-0.71-1.42-2.15-1.6-3.19-0.41L8.55,29.79c-0.52,1.5,0.13,3.46,1.44,4.35l18.88,10.22
				c1.45,0.64,2.81,0.34,3.03-0.66c0.21-1.01-0.3-4.9-1.19-6.22L17.67,17.36z"/>
		</g>
		<g>
			<path fill="#11341C" d="M61.63,2.06c-1.58-0.13-3.53,0.88-4.32,2.25l-8.82,24.85c-0.43,1.53,0.14,2.64,1.28,2.47
				s5.14-1.88,6.19-3.07L76.01,5.38c1.18-1.06,0.86-2.11-0.7-2.35L61.63,2.06z"/>
		</g>
		<g>
			<path fill="#11341C" d="M54.88,2.04c0.73-1.41,0.05-2.3-1.5-1.98L40.04,4.76c-1.4,0.74-2.53,2.64-2.51,4.23l2.6,22.16
				c0.28,1.56,1.48,2.37,2.66,1.81s3.57-3.84,4.07-5.34L54.88,2.04z"/>
		</g>
		<g>
			<path fill="#11341C" d="M66.42,37.01c-1.43,0.7-1.54,2.03-0.26,2.96c0,0,10.18,7.39,13.51,9.98c11.37-4.01,31.24-6.25,31.24-6.25
				c1.58-0.18,2.03-1.32,1.01-2.53L98.11,24.67c-1.02-1.22-3.09-1.81-4.59-1.32L66.42,37.01z"/>
		</g>
		<g>
			<path fill="#11341C" d="M56.99,31.51c-0.92,1.3-0.45,2.6,1.02,2.91c1.48,0.3,6.71,0.21,8.13-0.48l29.46-14.31
				c1.46-0.61,1.63-1.9,0.38-2.87l-15.6-7.5c-1.41-0.73-3.54-0.48-4.74,0.56L56.99,31.51z"/>
		</g>
	</g>
</g>
<path fill="#11341C" d="M150.3,75.96h7.31c0,2.89,4.15,3.65,5.78,3.65c1.09,0,2.4-0.33,2.4-1.85c0-1.64-4.09-1.91-8.02-3.27
	c-3.71-1.31-7.25-3.6-7.25-8.73c0-5.56,5.73-7.91,9.6-7.91c3.71,0,6.98,1.91,8.13,4.25l0.44-3.6h6.71v9.82h-7.09
	c0-2.29-2.84-4.15-5.56-4.15c-1.15,0-2.13,0.6-2.13,1.96c0,1.53,3.22,2.18,6.71,3.38c4.15,1.42,8.78,3,8.78,8.73
	c0,5.13-4.85,8.18-10.14,8.18c-3.93,0-7.04-1.91-8.35-3.98l-0.49,3.33h-6.82V75.96z"/>
<path fill="#11341C" d="M196.82,70.83c-0.11-2.62-0.93-5.73-3.44-5.73c-3.22,0-4.8,3.44-4.8,6.98c0,3.54,2.13,6.38,5.62,6.44
	c2.89,0.05,4.8-1.15,6.6-3.11l4.8,5.56c-2.56,2.78-7.47,5.56-13.36,5.56c-8.02,0-15-4.85-15-14.56c0-9.65,6.44-13.96,13.42-13.96
	c3.71,0,5.89,2.02,6.82,3.11l0.93-2.62h6.44v12.33H196.82z"/>
<path fill="#11341C" d="M207.51,85.77v-7.14h2.4V65.6h-2.34v-7.09h10.25l1.64,3.49c1.42-2.62,2.83-4.85,8.45-4.85v9.82
	c-4.91,0-7.69,1.25-7.69,6.05v5.62h2.73v7.14H207.51z"/>
<path fill="#11341C" d="M242.74,58.51v13.14c0,4.69,0.71,6.87,2.95,6.87c1.91,0,3.44-1.69,3.44-4.15v-8.67h-3.6v-7.2h14.13v20.02
	h2.67v7.25h-10.31l-1.47-3.44c-1.2,1.36-3.11,4.2-7.74,4.2c-8.24,0-10.96-4.25-10.96-13.31v-7.53h-2.29v-7.2H242.74z"/>
<path fill="#11341C" d="M264.5,85.77v-7.14h2.29V65.76h-2.29v-7.2h10.31l1.2,3.22c0.87-1.04,3.38-3.98,6.82-3.98
	c5.51,0,7.25,2.62,8.13,3.93c1.69-1.91,4.25-3.93,8.02-3.93c8.83,0,10.2,6.44,10.2,13.09v7.53h2.67v7.36h-13.85V72.41
	c0-2.62,0.49-6.76-2.07-6.76c-2.35,0-2.89,1.64-2.89,3.98v8.84h3.27v7.31h-14.13V71.87c0-4.42-0.11-6.22-2.29-6.22
	c-1.75,0-2.45,1.04-2.45,3.27v9.71h3.27v7.14H264.5z"/>
<path fill="#11341C" d="M314.03,85.77v-7.14h2.29V65.76h-2.29v-7.2h10.31l1.2,3.22c0.87-1.04,3.38-3.98,6.82-3.98
	c5.51,0,7.25,2.62,8.13,3.93c1.69-1.91,4.25-3.93,8.02-3.93c8.84,0,10.2,6.44,10.2,13.09v7.53h2.67v7.36h-13.85V72.41
	c0-2.62,0.49-6.76-2.07-6.76c-2.34,0-2.89,1.64-2.89,3.98v8.84h3.27v7.31H331.7V71.87c0-4.42-0.11-6.22-2.29-6.22
	c-1.74,0-2.46,1.04-2.46,3.27v9.71h3.27v7.14H314.03z"/>
<path fill="#11341C" d="M380.51,65.43v-6.93h13.85v6.76h-2.62l-10.36,25.2c-1.58,3.38-3.82,7.74-11.73,7.69
	c-2.83-0.17-4.96-1.31-6.6-2.73l4.09-6.43c0.93,0.82,2.02,1.63,3.16,1.85c1.69,0.33,2.95-1.25,3.49-2.89l0.76-2.29l-10.64-20.18
	h-2.24v-6.98h16.8v6.93h-2.56l3.54,8.51l3.55-8.51H380.51z"/>
<g>
	<g>
		<path fill="#11341C" d="M117.26,86.08c0.75,2.96,5.13,4.77,4.67,2.66c-0.24-1.11-2.41-2.53-1.28-3.22
			c1.53-0.93,2.84,0.43,3.04,1.58c0.26,1.54,1.06,5.26-1.81,5.28c-5.22,0.04-5.56-5.05-7.49-8.66c-0.52-0.98-1.32-1.92-2.25-2.53
			c-2.2-1.45-5.17-2.63-5.3-5.68c-0.01-0.33,0.58-3.13,0.64-3.09c1.56,1.02,2.64,2.83,3.86,4.21c2.86,3.23,6.58,4.41,10.78,4.88
			c1.03,0.12,2.9,0.54,3.84-0.13c0.87-0.61,0.39-2.03,0.18-2.86c-0.57-2.25-1.42-4.42-1.94-6.69c-0.74-3.21-5.48-3.15-5.7-0.87
			c-0.22,2.28,4.12,3.34,2.24,6.18c-1.89,2.84-6.89-3.04-9.06-11.51c-1.6-6.2-1.96-11.5-4.74-16.36
			c-1.54-0.43-21.23,2.22-26.82,4.55c0.88,8.05,2.09,16.41-1.61,20.65c-1.77,2.03-0.25,4.84,4.27,4.24
			c1.49-3.26,1.56-11.06,3.34-9.07c1.78,1.99,3.83,18.56-4.46,18.85c-2.12,0.08-3.42-1.17-4.2-3.59c0.08-1,3.25-3.08,3.72-0.68
			c0.62,2.33-2.33-0.8-1.7,1.53c0.47,1.51,3.88,2.71,3.91-0.72c0.07-8-9.06-3.97-9.93-1.18c-1.01,3.23,3.53,8.37,5.87,10
			c2.34,1.63,9.62,1.15,12.1-6.73c1.1-3.5,0.59-6.57,2.53-7.16c1.41,4.68,4.08,7.38-6.24,15.24c-5.49,4.18,1.38,7.51,4.87,8.84
			c3.49,1.33,8.58,3.7,9.81,3.15c1.23-0.55-3.29-3.37-6.26-5.24c-2.97-1.87-3.73-2.74-2.7-5.92c0.7-2.17,3.98-4.24,7.43-6.18
			c4.79,1.68,9.78,5.87,11.16,10.96c0.22,0.81,0.13,2.43-0.87,2.8c-1.15,0.42-2.81,0.03-3.8-0.62c-1.14-0.75-2.11-1.77-3.05-2.74
			c-0.33-0.34-1.88-1.98-0.78-2.46c0.46-0.2,1.7,1.13,2.11,1.36c0.88,0.49,2.34,1.17,3.24,0.36c1.32-1.2-4.97-6.18-6.76-6.19
			c-1.78-0.02-4.29,2.72-4.49,4.69c-0.2,1.97,7.67,7.32,8.54,7.9c5.63,3.8,11.55-0.53,10.5-4.37c-1.04-3.84-6.04-12.19-11.25-15.05
			c4.38-0.71,5.27-0.48,8.12,3.18c2.75,3.54,3.84,8.05,7.24,8.66c3.4,0.61,8.74-3.51,9.03-7.39
			C130.32,83.49,115.8,80.29,117.26,86.08z M95.45,58.83c1.4-5.57,11.13-5.38,12.41-0.03v0.04C108.17,65.34,93.76,65.53,95.45,58.83
			z M97.73,61.12c2.66,3.3,8.16,1.01,8.19-2.14C105.95,54.68,94.74,57.29,97.73,61.12z M105.16,60.15
			c-0.33,0.75-1.23,1.06-1.98,1.14c-0.61,0.06-1.33-0.36-1.04-1.05c0.32-0.75,1.23-1.06,1.98-1.14
			C104.73,59.04,105.45,59.46,105.16,60.15z"/>
	</g>
</g>
</svg>
