<?xml version="1.0" encoding="utf-8"?>
<!-- Generator: Adobe Illustrator 15.0.1, SVG Export Plug-In  -->
<!DOCTYPE svg PUBLIC "-//W3C//DTD SVG 1.1//EN" "http://www.w3.org/Graphics/SVG/1.1/DTD/svg11.dtd" [
	<!ENTITY ns_flows "http://ns.adobe.com/Flows/1.0/">
]>
<svg version="1.1"
	 xmlns="http://www.w3.org/2000/svg" xmlns:xlink="http://www.w3.org/1999/xlink" xmlns:a="http://ns.adobe.com/AdobeSVGViewerExtensions/3.0/"
	 x="0px" y="0px" width="100px" height="100px" viewBox="-20.1 -15.9 100 100" enable-background="new -20.1 -15.9 100 100"
	 xml:space="preserve">
<defs>
</defs>
<g>
	<g>
		<g>
			<path d="M34.6,24.5c-0.6-0.7-1.9-1.4-2.9-1.3l-3.1,1.4c-0.8,0.5-1.1,1.2-0.6,1.6s2.3,1.1,3.3,1.1l3.4,0.2
				c0.9,0.3,1.5-0.2,1.2-1.1L34.6,24.5z"/>
		</g>
		<g>
			<path d="M26.6,45.7c-0.4,0.9-0.1,1.1,0.6,0.4l7-7.9c0.6-0.7,0.5-1.8-0.3-2.3l-2.4-2.1c-0.9-0.3-2-0.3-2.3,0s-1,1.8-1.2,2.8
				L26.6,45.7z"/>
		</g>
		<g>
			<path d="M31.9,28.8c-1,0-1.8,0.3-1.7,0.8s0.9,1.9,1.8,2.4l2.8,2c0.7,0.7,1.5,0.6,1.9-0.3l-0.3-2c-0.2-1-1-2.1-1.9-2.4L31.9,28.8z
				"/>
		</g>
		<g>
			<path d="M23.2,37.1c0.7-0.7,0.9-1.3,0.5-1.3s-2.2,0.1-3,0.6L8.1,42c-0.9,0.4-1,1.2-0.3,1.8l5.3,2c0.9,0.3,2.3,0.1,3.1-0.5
				L23.2,37.1z"/>
		</g>
		<g>
			<path d="M22.8,47.2c1-0.2,2.1-1,2.5-1.9l1.7-8.7c0.2-1-0.1-1.1-0.8-0.4l-9.3,10.7c-0.6,0.8-0.2,1.4,0.7,1.3L22.8,47.2z"/>
		</g>
		<g>
			<path d="M17,32.2c1-0.1,1.6-0.5,1.3-1c-0.2-0.4-1.6-1.8-2.5-2.2c0,0-11.6-4.7-15.7-7.2c-0.6,2.5,0.7,8,0.7,8
				c0.2,0.9,1.2,1.9,2.2,2L17,32.2z"/>
		</g>
		<g>
			<path d="M19.6,35.7c0.9-0.4,1.2-1,0.8-1.3c-0.4-0.3-2.4-1.1-3.4-1L2.1,33.6c-1-0.1-1.4,0.5-0.9,1.3l4,4.8c0.7,0.7,2.1,1,3,0.8
				L19.6,35.7z"/>
		</g>
		<g>
			<path d="M20,22.8c0.2-0.5,0-1.6-0.5-2.5L13.5,6c-0.3-0.9-1.1-1.2-1.9-0.5L7.8,9.7c-0.5,0.8-0.5,2.1,0.1,2.9L18,23.5
				C18.7,24.1,19.9,23.3,20,22.8z"/>
		</g>
		<g>
			<path d="M6.2,13c-0.6-0.8-1.5-0.7-2.1,0.1l-2.2,5.1c-0.2,0.9,0.2,2.2,1,2.8L16.4,28c0.9,0.3,1.7,0.1,1.7-0.4
				c0-0.6-0.8-2.7-1.5-3.3L6.2,13z"/>
		</g>
		<g>
			<path d="M27.4,19.2c0.8-0.4,1.7-1.4,2.1-2.3l6.1-13.1c0.5-0.8,0.2-1.7-0.8-1.9l-7.2,0c-1,0.2-1.9,1.1-2.1,2L24.9,18
				C25,18.9,26.6,19.5,27.4,19.2z"/>
		</g>
		<g>
			<path d="M23.1,20c0.3-0.4,0.5-1.6,0.5-2.6l0.8-15.2c0.1-1-0.5-1.5-1.4-1.2l-6.4,2.6c-0.8,0.5-1.3,1.7-1,2.7l5,13.4
				C21,20.6,22.8,20.5,23.1,20z"/>
		</g>
		<g>
			<path d="M53.6,20.5c1-0.1,1.3-0.8,0.8-1.6l-5-6.1c-0.8-0.6-2.2-0.7-3-0.2l-11.6,7.7C34,20.8,34,21.6,34.7,22s3.1,1.3,4.1,1.1
				L53.6,20.5z"/>
		</g>
		<g>
			<path d="M46.5,10.2c0.9-0.5,0.9-1.4,0.2-2l-8-3.3c-0.9-0.3-2.1,0.2-2.6,1l-5.8,11.9c-0.4,0.9-0.1,1.7,0.5,1.8s3-0.3,3.8-0.9
				L46.5,10.2z"/>
		</g>
		<g>
			<path d="M57.1,36.8c0-1-0.6-2.1-1.5-2.6l-15.5-4.7c-0.9-0.2-1.6,0.2-1.5,0.9s1.3,3.1,2.1,3.7l14.8,11.7c0.7,0.7,1.3,0.5,1.4-0.5
				L57.1,36.8z"/>
		</g>
		<g>
			<path d="M57,32.7c0.9,0.4,1.4,0,1.2-1l-3.2-8.1c-0.5-0.8-1.7-1.5-2.7-1.4l-13.5,2.2c-1,0.2-1.4,1-1,1.7s2.5,2.1,3.4,2.4L57,32.7z
				"/>
		</g>
		<g>
			<path d="M35.8,40.7c-0.5-0.9-1.3-0.9-1.8-0.1c0,0-4.3,6.5-5.8,8.6c2.8,6.9,4.7,19,4.7,19c0.2,1,0.9,1.2,1.6,0.6l9.8-8.9
				c0.7-0.7,1-1.9,0.7-2.9L35.8,40.7z"/>
		</g>
		<g>
			<path d="M38.9,34.8c-0.8-0.5-1.6-0.2-1.8,0.7c-0.1,0.9,0.1,4.1,0.5,5l9.6,17.7c0.4,0.9,1.2,1,1.8,0.2l4.2-9.8
				c0.4-0.9,0.2-2.2-0.5-2.9L38.9,34.8z"/>
		</g>
	</g>
</g>
<g>
	<g>
		<g>
			<g>
				<g>
					<g>
						<path fill="#FFFFFF" d="M35.6,23.5c-0.6-0.7-1.9-1.4-2.9-1.3l-3.1,1.4c-0.8,0.5-1.1,1.2-0.6,1.6c0.5,0.3,2.3,1.1,3.3,1.1
							l3.4,0.2c0.9,0.3,1.5-0.2,1.2-1.1L35.6,23.5z"/>
					</g>
					<g>
						<path fill="#FFFFFF" d="M27.6,44.7c-0.4,0.9-0.1,1.1,0.6,0.4l7-7.9c0.6-0.7,0.5-1.8-0.3-2.3l-2.4-2.1c-0.9-0.3-2-0.3-2.3,0
							c-0.3,0.3-1,1.8-1.2,2.8L27.6,44.7z"/>
					</g>
					<g>
						<path fill="#FFFFFF" d="M32.9,27.8c-1,0-1.8,0.3-1.7,0.8c0,0.5,0.9,1.9,1.8,2.4l2.8,2c0.7,0.7,1.5,0.6,1.9-0.3l-0.3-2
							c-0.2-1-1-2.1-1.9-2.4L32.9,27.8z"/>
					</g>
					<g>
						<path fill="#FFFFFF" d="M24.2,36.1c0.7-0.7,0.9-1.3,0.5-1.3s-2.2,0.1-3,0.6L9.1,41c-0.9,0.4-1,1.2-0.3,1.8l5.3,2
							c0.9,0.3,2.3,0.1,3.1-0.5L24.2,36.1z"/>
					</g>
					<g>
						<path fill="#FFFFFF" d="M23.8,46.2c1-0.2,2.1-1,2.4-1.9l1.7-8.7c0.2-1-0.1-1.1-0.8-0.4l-9.3,10.7c-0.6,0.8-0.2,1.4,0.7,1.3
							L23.8,46.2z"/>
					</g>
					<g>
						<path fill="#FFFFFF" d="M18,31.2c1-0.1,1.6-0.5,1.3-1c-0.2-0.4-1.6-1.8-2.5-2.2c0,0-11.6-4.7-15.7-7.2c-0.6,2.5,0.7,8,0.7,8
							c0.2,0.9,1.2,1.9,2.2,2L18,31.2z"/>
					</g>
					<g>
						<path fill="#FFFFFF" d="M20.6,34.7c0.9-0.4,1.2-1,0.8-1.3c-0.4-0.3-2.4-1.1-3.4-1L3.1,32.6c-1-0.1-1.4,0.5-0.9,1.3l4,4.7
							c0.7,0.7,2.1,1,3,0.8L20.6,34.7z"/>
					</g>
					<g>
						<path fill="#FFFFFF" d="M21,21.8c0.2-0.5,0-1.6-0.5-2.5L14.5,5c-0.3-0.9-1.1-1.2-1.9-0.5L8.8,8.7c-0.5,0.8-0.5,2.1,0.1,2.9
							L19,22.5C19.7,23.1,20.9,22.3,21,21.8z"/>
					</g>
					<g>
						<path fill="#FFFFFF" d="M7.2,12c-0.6-0.8-1.5-0.7-2.1,0.1l-2.2,5.1c-0.2,0.9,0.2,2.2,1,2.8L17.4,27c0.9,0.3,1.7,0.1,1.7-0.4
							c0-0.6-0.8-2.7-1.5-3.3L7.2,12z"/>
					</g>
					<g>
						<path fill="#FFFFFF" d="M28.4,18.2c0.8-0.4,1.7-1.4,2.1-2.3l6.1-13.1c0.5-0.8,0.2-1.7-0.8-1.9l-7.2,0c-1,0.2-1.9,1.1-2.1,2
							L25.9,17C26,17.9,27.6,18.5,28.4,18.2z"/>
					</g>
					<g>
						<path fill="#FFFFFF" d="M24.1,19c0.3-0.4,0.5-1.6,0.5-2.6l0.8-15.2c0.1-1-0.5-1.5-1.4-1.2l-6.4,2.6c-0.8,0.5-1.3,1.7-1,2.7
							l5,13.4C22,19.6,23.8,19.5,24.1,19z"/>
					</g>
					<g>
						<path fill="#FFFFFF" d="M54.6,19.5c1-0.1,1.3-0.8,0.8-1.6l-5-6.1c-0.8-0.6-2.2-0.7-3-0.2l-11.6,7.7C35,19.8,35,20.6,35.7,21
							s3.1,1.3,4.1,1.1L54.6,19.5z"/>
					</g>
					<g>
						<path fill="#FFFFFF" d="M47.5,9.2c0.9-0.5,0.9-1.4,0.2-2l-8-3.3c-0.9-0.3-2.1,0.2-2.6,1l-5.8,11.9c-0.4,0.9-0.1,1.7,0.5,1.8
							c0.6,0.1,3-0.3,3.8-0.9L47.5,9.2z"/>
					</g>
					<g>
						<path fill="#FFFFFF" d="M58.1,35.8c0-1-0.6-2.1-1.5-2.6l-15.5-4.7c-0.9-0.2-1.6,0.2-1.5,0.9s1.3,3.1,2.1,3.7l14.8,11.7
							c0.7,0.7,1.3,0.5,1.4-0.5L58.1,35.8z"/>
					</g>
					<g>
						<path fill="#FFFFFF" d="M58,31.7c0.9,0.4,1.4,0,1.2-1l-3.2-8.1c-0.5-0.8-1.7-1.5-2.7-1.4l-13.5,2.2c-1,0.2-1.4,1-1,1.7
							c0.4,0.7,2.5,2.1,3.4,2.4L58,31.7z"/>
					</g>
					<g>
						<path fill="#FFFFFF" d="M36.8,39.7c-0.5-0.9-1.3-0.9-1.8-0.1c0,0-4.3,6.5-5.8,8.6c2.8,6.9,4.7,19,4.7,19
							c0.2,1,0.9,1.2,1.6,0.6l9.8-8.9c0.7-0.7,1-1.9,0.7-2.9L36.8,39.7z"/>
					</g>
					<g>
						<path fill="#FFFFFF" d="M39.9,33.8c-0.8-0.5-1.6-0.2-1.8,0.7c-0.1,0.9,0.1,4.1,0.5,5l9.6,17.7c0.4,0.9,1.2,1,1.8,0.2l4.2-9.8
							c0.4-0.9,0.2-2.2-0.5-2.9L39.9,33.8z"/>
					</g>
				</g>
			</g>
		</g>
	</g>
	<defs>
		<filter id="Adobe_OpacityMaskFilter" filterUnits="userSpaceOnUse" x="1" y="0" width="58.2" height="68.2">
			
				<feColorMatrix  type="matrix" values="-1 0 0 0 1  0 -1 0 0 1  0 0 -1 0 1  0 0 0 1 0" color-interpolation-filters="sRGB" result="source"/>
		</filter>
	</defs>
	<mask maskUnits="userSpaceOnUse" x="1" y="0" width="58.2" height="68.2" id="SVGID_1_">
		<g filter="url(#Adobe_OpacityMaskFilter)">
			<image overflow="visible" width="63" height="74" xlink:href="ECBBC411.jpg"  transform="matrix(1 0 0 1 -1.1362 -2.8979)">
			</image>
		</g>
	</mask>
	<g opacity="0.1" mask="url(#SVGID_1_)">
		<g>
			<g>
				<g>
					<g>
						<path fill="#FFFFFF" d="M35.6,23.5c-0.6-0.7-1.9-1.4-2.9-1.3l-3.1,1.4c-0.8,0.5-1.1,1.2-0.6,1.6c0.5,0.3,2.3,1.1,3.3,1.1
							l3.4,0.2c0.9,0.3,1.5-0.2,1.2-1.1L35.6,23.5z"/>
					</g>
					<g>
						<path fill="#FFFFFF" d="M27.6,44.7c-0.4,0.9-0.1,1.1,0.6,0.4l7-7.9c0.6-0.7,0.5-1.8-0.3-2.3l-2.4-2.1c-0.9-0.3-2-0.3-2.3,0
							c-0.3,0.3-1,1.8-1.2,2.8L27.6,44.7z"/>
					</g>
					<g>
						<path fill="#FFFFFF" d="M32.9,27.8c-1,0-1.8,0.3-1.7,0.8c0,0.5,0.9,1.9,1.8,2.4l2.8,2c0.7,0.7,1.5,0.6,1.9-0.3l-0.3-2
							c-0.2-1-1-2.1-1.9-2.4L32.9,27.8z"/>
					</g>
					<g>
						<path fill="#FFFFFF" d="M24.2,36.1c0.7-0.7,0.9-1.3,0.5-1.3s-2.2,0.1-3,0.6L9.1,41c-0.9,0.4-1,1.2-0.3,1.8l5.3,2
							c0.9,0.3,2.3,0.1,3.1-0.5L24.2,36.1z"/>
					</g>
					<g>
						<path fill="#FFFFFF" d="M23.8,46.2c1-0.2,2.1-1,2.4-1.9l1.7-8.7c0.2-1-0.1-1.1-0.8-0.4l-9.3,10.7c-0.6,0.8-0.2,1.4,0.7,1.3
							L23.8,46.2z"/>
					</g>
					<g>
						<path fill="#FFFFFF" d="M18,31.2c1-0.1,1.6-0.5,1.3-1c-0.2-0.4-1.6-1.8-2.5-2.2c0,0-11.6-4.7-15.7-7.2c-0.6,2.5,0.7,8,0.7,8
							c0.2,0.9,1.2,1.9,2.2,2L18,31.2z"/>
					</g>
					<g>
						<path fill="#FFFFFF" d="M20.6,34.7c0.9-0.4,1.2-1,0.8-1.3c-0.4-0.3-2.4-1.1-3.4-1L3.1,32.6c-1-0.1-1.4,0.5-0.9,1.3l4,4.7
							c0.7,0.7,2.1,1,3,0.8L20.6,34.7z"/>
					</g>
					<g>
						<path fill="#FFFFFF" d="M21,21.8c0.2-0.5,0-1.6-0.5-2.5L14.5,5c-0.3-0.9-1.1-1.2-1.9-0.5L8.8,8.7c-0.5,0.8-0.5,2.1,0.1,2.9
							L19,22.5C19.7,23.1,20.9,22.3,21,21.8z"/>
					</g>
					<g>
						<path fill="#FFFFFF" d="M7.2,12c-0.6-0.8-1.5-0.7-2.1,0.1l-2.2,5.1c-0.2,0.9,0.2,2.2,1,2.8L17.4,27c0.9,0.3,1.7,0.1,1.7-0.4
							c0-0.6-0.8-2.7-1.5-3.3L7.2,12z"/>
					</g>
					<g>
						<path fill="#FFFFFF" d="M28.4,18.2c0.8-0.4,1.7-1.4,2.1-2.3l6.1-13.1c0.5-0.8,0.2-1.7-0.8-1.9l-7.2,0c-1,0.2-1.9,1.1-2.1,2
							L25.9,17C26,17.9,27.6,18.5,28.4,18.2z"/>
					</g>
					<g>
						<path fill="#FFFFFF" d="M24.1,19c0.3-0.4,0.5-1.6,0.5-2.6l0.8-15.2c0.1-1-0.5-1.5-1.4-1.2l-6.4,2.6c-0.8,0.5-1.3,1.7-1,2.7
							l5,13.4C22,19.6,23.8,19.5,24.1,19z"/>
					</g>
					<g>
						<path fill="#FFFFFF" d="M54.6,19.5c1-0.1,1.3-0.8,0.8-1.6l-5-6.1c-0.8-0.6-2.2-0.7-3-0.2l-11.6,7.7C35,19.8,35,20.6,35.7,21
							s3.1,1.3,4.1,1.1L54.6,19.5z"/>
					</g>
					<g>
						<path fill="#FFFFFF" d="M47.5,9.2c0.9-0.5,0.9-1.4,0.2-2l-8-3.3c-0.9-0.3-2.1,0.2-2.6,1l-5.8,11.9c-0.4,0.9-0.1,1.7,0.5,1.8
							c0.6,0.1,3-0.3,3.8-0.9L47.5,9.2z"/>
					</g>
					<g>
						<path fill="#FFFFFF" d="M58.1,35.8c0-1-0.6-2.1-1.5-2.6l-15.5-4.7c-0.9-0.2-1.6,0.2-1.5,0.9s1.3,3.1,2.1,3.7l14.8,11.7
							c0.7,0.7,1.3,0.5,1.4-0.5L58.1,35.8z"/>
					</g>
					<g>
						<path fill="#FFFFFF" d="M58,31.7c0.9,0.4,1.4,0,1.2-1l-3.2-8.1c-0.5-0.8-1.7-1.5-2.7-1.4l-13.5,2.2c-1,0.2-1.4,1-1,1.7
							c0.4,0.7,2.5,2.1,3.4,2.4L58,31.7z"/>
					</g>
					<g>
						<path fill="#FFFFFF" d="M36.8,39.7c-0.5-0.9-1.3-0.9-1.8-0.1c0,0-4.3,6.5-5.8,8.6c2.8,6.9,4.7,19,4.7,19
							c0.2,1,0.9,1.2,1.6,0.6l9.8-8.9c0.7-0.7,1-1.9,0.7-2.9L36.8,39.7z"/>
					</g>
					<g>
						<path fill="#FFFFFF" d="M39.9,33.8c-0.8-0.5-1.6-0.2-1.8,0.7c-0.1,0.9,0.1,4.1,0.5,5l9.6,17.7c0.4,0.9,1.2,1,1.8,0.2l4.2-9.8
							c0.4-0.9,0.2-2.2-0.5-2.9L39.9,33.8z"/>
					</g>
				</g>
			</g>
		</g>
	</g>
</g>
</svg>
